<?xml version="1.0" encoding="UTF-8" standalone="no"?>
<svg
   xmlns:dc="http://purl.org/dc/elements/1.1/"
   xmlns:cc="http://creativecommons.org/ns#"
   xmlns:rdf="http://www.w3.org/1999/02/22-rdf-syntax-ns#"
   xmlns:svg="http://www.w3.org/2000/svg"
   xmlns="http://www.w3.org/2000/svg"
   xmlns:sodipodi="http://sodipodi.sourceforge.net/DTD/sodipodi-0.dtd"
   xmlns:inkscape="http://www.inkscape.org/namespaces/inkscape"
   sodipodi:docname="NNLogo.svg"
   inkscape:version="1.0 (4035a4fb49, 2020-05-01)"
   id="svg8"
   version="1.1"
   viewBox="0 0 88 112"
   height="112mm"
   width="88mm">
  <defs
     id="defs2" />
  <sodipodi:namedview
     width="87mm"
     units="mm"
     inkscape:window-maximized="0"
     inkscape:window-y="0"
     inkscape:window-x="78"
     inkscape:window-height="1045"
     inkscape:window-width="1570"
     showgrid="false"
     inkscape:document-rotation="0"
     inkscape:current-layer="g36"
     inkscape:document-units="mm"
     inkscape:cy="369.06115"
     inkscape:cx="254.02517"
     inkscape:zoom="0.98994949"
     inkscape:pageshadow="2"
     inkscape:pageopacity="0.0"
     borderopacity="1.0"
     bordercolor="#666666"
     pagecolor="#ffffff"
     id="base" />
  <metadata
     id="metadata5">
    <rdf:RDF>
      <cc:Work
         rdf:about="">
        <dc:format>image/svg+xml</dc:format>
        <dc:type
           rdf:resource="http://purl.org/dc/dcmitype/StillImage" />
        <dc:title></dc:title>
      </cc:Work>
    </rdf:RDF>
  </metadata>
  <g
     id="layer1"
     inkscape:groupmode="layer"
     inkscape:label="Warstwa 1">
    <g
       transform="matrix(0,-5.1290035,5.1290035,0,9.6458784,136.21646)"
       id="g36"
       style="fill:#000000">
      <path
         d="M 0,0 H 24 V 24 H 0 Z"
         fill="none"
         id="path22" />
      <path
         d="m 25.856099,4.9453838 -6,-6 H 7.8560989 c -1.1,0 -2,0.9 -2,2 V 12.955383 c 0,1.1 0.9,1.99 2,1.99 l 16.0000001,-0.01 c 1.1,0 2,-0.89 2,-1.99 z m -7,-4.5 5.5,5.5 h -5.5 z"
         id="path24" />
      <text
         transform="matrix(0,0.9988212,-1.0011802,0,0,0)"
         id="text68"
         y="-19.916668"
         x="7.1428809"
         style="font-style:normal;font-weight:normal;font-size:4.65383px;line-height:1.25;font-family:sans-serif;fill:#000000;fill-opacity:1;stroke:none;stroke-width:0.116346"
         xml:space="preserve"><tspan
           style="font-style:normal;font-variant:normal;font-weight:normal;font-stretch:normal;font-family:Go;-inkscape-font-specification:Go;fill:#ffffff;stroke-width:0.116346"
           y="-19.916668"
           x="7.1428809"
           id="tspan66"
           sodipodi:role="line">Nn</tspan></text>
    </g>
    <g
       transform="matrix(3.3499907,0,0,3.3499907,3.9694788,28.22726)"
       id="g64"
       style="fill:#ffffff">
      <path
         d="M 0,0 H 24 V 24 H 0 Z"
         fill="none"
         id="path50" />
      <path
         d="M 3,18 H 15 V 16 H 3 Z M 3,6 V 8 H 21 V 6 Z m 0,7 H 21 V 11 H 3 Z"
         id="path52" />
    </g>
  </g>
</svg>
